<svg xmlns="http://www.w3.org/2000/svg" viewBox="0 0 260.33 134.62"><g><g><path d="M90.92,42.54V70a17.9,17.9,0,0,0,11.2,4.21,11.52,11.52,0,0,0,9-3.72q3.39-3.72,3.39-10a18.26,18.26,0,0,0-4.72-12.75q-4.71-5.2-13.53-5.21Zm0-26.59V40.14h10.17A12,12,0,0,0,109,37.6q3.08-2.55,3.07-7.86,0-7.18-3.73-11.73a11.43,11.43,0,0,0-9.19-4.56A12.7,12.7,0,0,0,90.92,16ZM73.35,11h31.54q10.22,0,13.37,3.39a11.86,11.86,0,0,1,3.15,8.39,16.7,16.7,0,0,1-3.67,10.2q-3.67,4.88-11.08,9.25,9.07.1,13.45,2.68t4.38,9.31q0,9.33-8.08,16.39A27.44,27.44,0,0,1,97.8,77.62H73.35v-2.5q4.59,0,6.25-1.76c1.12-1.14,1.67-3.3,1.67-6.47V21.69q0-5.06-1.77-6.59c-1.18-1-3.23-1.57-6.15-1.65Z" style="fill:#101a63;fill-rule:evenodd"/><path d="M143.78,11h25.49v2.51c-3.14.06-5.25.65-6.32,1.75s-1.6,3.27-1.6,6.48V75.13h6.79q15.83,0,18.8-16.58h3.75l-4.48,21.53h-2.4c0-1.64-.78-2.46-2.24-2.46H143.78V75.13q4.64-.06,6.28-1.79c1.1-1.16,1.64-3.31,1.64-6.45V21.69q0-5-1.77-6.58c-1.18-1-3.23-1.59-6.15-1.65Z" style="fill:#101a63;fill-rule:evenodd"/><path d="M122.53,72.8a5.49,5.49,0,0,0-4,1.82A8.49,8.49,0,0,0,117,77a6.2,6.2,0,0,0-.64,2.55c0,2,1.09,3.06,3.29,3.06a5.55,5.55,0,0,0,2.92-.76,7.11,7.11,0,0,0,2.27-2.41,6,6,0,0,0,.9-3,3.87,3.87,0,0,0-.86-2.64,2.94,2.94,0,0,0-2.31-1Zm.33-2.6a5.62,5.62,0,0,1,4.24,2,5.72,5.72,0,0,1,1.33,3.93,8.59,8.59,0,0,1-1.17,4.2,9.38,9.38,0,0,1-3.05,3.34,7.34,7.34,0,0,1-2.32,1.09,13.66,13.66,0,0,1-3.16.29A5.08,5.08,0,0,1,115,83.67a5.25,5.25,0,0,1-1.36-3.85,9,9,0,0,1,1-4.1,10.14,10.14,0,0,1,2.3-3,8.76,8.76,0,0,1,6-2.48Z" style="fill:#101a63;fill-rule:evenodd"/><path d="M149.05,63.26h-.92a7.62,7.62,0,0,0-4.48,1.11,9.79,9.79,0,0,0-2.85,4.2l-2.75,6.59,4.14,0v2.49l-5.25,0-12,28.07h-2.83L134.16,77.6h-4.59l1-2.44h4.58l3.2-7.49q1.7-4,3.71-5.44a9.62,9.62,0,0,1,5.77-1.46h2.25Z" style="fill:#101a63;fill-rule:evenodd"/><path d="M61.14,87H202.9V4.09H61.14ZM207,91H57.06V0H207Z" style="fill:#101a63;fill-rule:evenodd"/><path d="M5.85,130.66a3.44,3.44,0,0,0,.21,1.44,1.17,1.17,0,0,0,.9.51,18,18,0,0,0,2.52.11A10.12,10.12,0,0,0,15.75,131a5.76,5.76,0,0,0,2.33-4.87,5.49,5.49,0,0,0-2.5-4.67,10.46,10.46,0,0,0-6.2-1.78,6.26,6.26,0,0,0-2.59.44,1.34,1.34,0,0,0-.94,1.22Zm-.16-14.51c0,.89.25,1.44.75,1.64a6.82,6.82,0,0,0,2.42.31,6.25,6.25,0,0,0,3.85-1.16,3.68,3.68,0,0,0,1.54-3.11,3.33,3.33,0,0,0-1.51-2.9,6.73,6.73,0,0,0-3.88-1,5.65,5.65,0,0,0-2.5.38,1.47,1.47,0,0,0-.67,1.42Zm5.06-7.81A7.43,7.43,0,0,1,15.37,110a5.1,5.1,0,0,1,2.11,4.23,3.59,3.59,0,0,1-1,2.47,6.24,6.24,0,0,1-2.64,1.66l-.27.18.27.12a10,10,0,0,1,5.53,2.8,7.25,7.25,0,0,1,2.29,5.3,6.47,6.47,0,0,1-2.78,5.35q-2.78,2.12-8,2.11c-5.54,0-8.74,0-9.6-.07S0,133.82,0,133.39a.89.89,0,0,1,.18-.55,2,2,0,0,1,1.09-.33A1.5,1.5,0,0,0,2.48,132a1.84,1.84,0,0,0,.27-1V111.44a2.22,2.22,0,0,0-.25-1.11c-.16-.28-.54-.41-1.14-.41a1.79,1.79,0,0,1-1.13-.23.88.88,0,0,1-.23-.64.58.58,0,0,1,.35-.51,1.56,1.56,0,0,1,.84-.2Z" style="fill:#101a63;fill-rule:evenodd"/><path d="M37.48,124.87a1.38,1.38,0,0,0-1.38-1.47,2.44,2.44,0,0,1-1.05-.31.63.63,0,0,1-.21-.48q0-.66,1-.66a6.26,6.26,0,0,1,1.07.18,7.4,7.4,0,0,0,1.73.19,3.25,3.25,0,0,0,.63-.07,3,3,0,0,1,.46-.07q.48,0,.48,1.08,0,8.16.14,8.68c.1.35.57.63,1.44.84a2.38,2.38,0,0,1,.83.32.44.44,0,0,1,.16.34.54.54,0,0,1-.29.43,1.36,1.36,0,0,1-.76.2,8.81,8.81,0,0,1-1-.12,6.68,6.68,0,0,0-1.08-.12,3,3,0,0,0-.82.12,3.46,3.46,0,0,1-.64.12.62.62,0,0,1-.54-.21,2.68,2.68,0,0,1-.18-1c0-.56-.05-1.62-.05-3.21Zm-5.83,6a1.8,1.8,0,0,0,.66,1.43,2.34,2.34,0,0,0,1.58.57,2.75,2.75,0,0,0,1.33-.45,2.63,2.63,0,0,1,1.12-.45c.23,0,.35.14.35.43s-.44.76-1.32,1.26a5.73,5.73,0,0,1-3,.77,3.47,3.47,0,0,1-2.26-.8A2.88,2.88,0,0,1,29,131.91q-.15-1-.15-7.28c0-.57-.58-1-1.74-1.25-.5-.1-.76-.3-.76-.59a.52.52,0,0,1,.24-.45,1,1,0,0,1,.6-.16l1,.14a11.29,11.29,0,0,0,1.57.14,2.58,2.58,0,0,0,.68-.13,2.82,2.82,0,0,1,.57-.13c.39,0,.58.8.58,2.41Z" style="fill:#101a63;fill-rule:evenodd"/><path d="M51,123.91a1.32,1.32,0,0,0,.38.84,11.53,11.53,0,0,0,2.43,1.5,7.85,7.85,0,0,1,2.77,2.12,3.83,3.83,0,0,1,.71,2.19,3.34,3.34,0,0,1-1.49,2.85,6.48,6.48,0,0,1-3.88,1.07,6.29,6.29,0,0,1-2.61-.58c-.87-.38-1.31-.77-1.31-1.16a11.58,11.58,0,0,0-.07-1.19c0-.46-.07-.84-.07-1.12,0-.59.27-.88.81-.88a.6.6,0,0,1,.43.2,4.91,4.91,0,0,1,.62,1.3,3.08,3.08,0,0,0,1,1.51,2.35,2.35,0,0,0,1.37.41,2.2,2.2,0,0,0,1.58-.61,2.14,2.14,0,0,0,.65-1.6,1.91,1.91,0,0,0-.44-1.19,8.06,8.06,0,0,0-2.41-1.5A6.31,6.31,0,0,1,49,126.24a3.48,3.48,0,0,1-.59-1.94A2.79,2.79,0,0,1,49.65,122a4.94,4.94,0,0,1,3-.94,8,8,0,0,1,2.77.5c.9.33,1.35.67,1.35,1a5.65,5.65,0,0,0,.07.83,7.43,7.43,0,0,1,.07.8,1.21,1.21,0,0,1-.19.65.58.58,0,0,1-.48.29.69.69,0,0,1-.58-.21,1.89,1.89,0,0,1-.31-.72,1.77,1.77,0,0,0-.46-.82,3.06,3.06,0,0,0-.84-.55,2.68,2.68,0,0,0-1.18-.25,2.07,2.07,0,0,0-1.24.41,1.14,1.14,0,0,0-.59.89Z" style="fill:#101a63;fill-rule:evenodd"/><path d="M66.43,115.76a2,2,0,0,1,2,2,1.54,1.54,0,0,1-.58,1.23,2,2,0,0,1-1.38.51,1.92,1.92,0,0,1-1.37-.56,1.8,1.8,0,0,1-.57-1.33,1.73,1.73,0,0,1,.57-1.29,1.92,1.92,0,0,1,1.34-.55Zm1.44,15.39a1.46,1.46,0,0,0,.32,1.13,1.74,1.74,0,0,0,.85.35,1.86,1.86,0,0,1,.75.22.66.66,0,0,1,.23.59c0,.4-.35.6-1,.6a13,13,0,0,1-1.33-.11,12.06,12.06,0,0,0-1.31-.1,8.2,8.2,0,0,0-1.25.13,7.39,7.39,0,0,1-1.22.15,1.06,1.06,0,0,1-.7-.24.72.72,0,0,1-.3-.61.59.59,0,0,1,.16-.4,1.65,1.65,0,0,1,.82-.28,1.44,1.44,0,0,0,.91-.42,2.87,2.87,0,0,0,.26-1.54v-6a1.25,1.25,0,0,0-.32-1,2.17,2.17,0,0,0-.94-.37,1.36,1.36,0,0,1-.77-.32.79.79,0,0,1-.15-.49.65.65,0,0,1,.25-.52,1,1,0,0,1,.62-.21,3.88,3.88,0,0,1,.86.13,3.84,3.84,0,0,0,.83.13,7,7,0,0,0,.92-.09,6.13,6.13,0,0,1,.93-.1c.44,0,.66.37.66,1.1,0,.11,0,.27,0,.47s0,.32,0,.4Z" style="fill:#101a63;fill-rule:evenodd"/><path d="M88.77,131.46a1.43,1.43,0,0,0,.25,1,2,2,0,0,0,.92.39c.45.1.67.29.67.56s-.22.56-.66.56l-1.07-.06c-.62,0-1.15-.06-1.58-.06a10.1,10.1,0,0,0-1.79.13,7.4,7.4,0,0,1-.94.14,1,1,0,0,1-.6-.22.66.66,0,0,1-.28-.52.58.58,0,0,1,.24-.44.76.76,0,0,1,.53-.21,1.71,1.71,0,0,0,1-.32,1.14,1.14,0,0,0,.44-1c0-2.84,0-4.6,0-5.28S86,125.09,86,125c0-.92-.43-1.38-1.27-1.38a3,3,0,0,0-1.56.83,3,3,0,0,1-1.43.84.5.5,0,0,1-.32-.18.53.53,0,0,1-.17-.38c0-.42.54-1.06,1.62-1.9a5.17,5.17,0,0,1,3.19-1.28,2.67,2.67,0,0,1,1.59.47,2.19,2.19,0,0,1,.89,1.18,6.94,6.94,0,0,1,.22,2v6.25Zm-10.87-6.8a1.55,1.55,0,0,0-.26-1,1.7,1.7,0,0,0-1.07-.47c-.54-.1-.82-.34-.82-.74A.66.66,0,0,1,76,122a1.13,1.13,0,0,1,.75-.24,3.43,3.43,0,0,1,.68.12,3.59,3.59,0,0,0,.81.12,7.84,7.84,0,0,0,.9-.1,6.63,6.63,0,0,1,.88-.11.52.52,0,0,1,.5.29,3.42,3.42,0,0,1,.16,1.18c0,1,0,2,0,3.14l-.1,5.05a1.51,1.51,0,0,0,.09.68,1.48,1.48,0,0,0,.41.31,2.71,2.71,0,0,0,.85.3,1.15,1.15,0,0,1,.65.3.66.66,0,0,1,.14.44c0,.4-.31.59-.92.59a7.5,7.5,0,0,1-1.32-.11,7.54,7.54,0,0,0-1.33-.11,13.62,13.62,0,0,0-1.38.09c-.56.06-1,.1-1.25.1-.61,0-.91-.22-.91-.66a.72.72,0,0,1,.16-.47,1.1,1.1,0,0,1,.7-.22,1.21,1.21,0,0,0,.74-.18,2.14,2.14,0,0,0,.51-.74,5,5,0,0,0,.11-1.31Z" style="fill:#101a63;fill-rule:evenodd"/><path d="M107,127a.81.81,0,0,0,.55-.14.72.72,0,0,0,.15-.51,3.77,3.77,0,0,0-1.06-2.53,4.06,4.06,0,0,0-3.18-1.18,4.69,4.69,0,0,0-3,1.4,5,5,0,0,0-1.57,4,4.47,4.47,0,0,0,1.65,3.38,5.43,5.43,0,0,0,3.71,1.49,7.22,7.22,0,0,0,3.36-1,2.54,2.54,0,0,1,.9-.38.69.69,0,0,1,.51.18.61.61,0,0,1,.18.45c0,.43-.65,1-2,1.57a9.45,9.45,0,0,1-4,.92A7,7,0,0,1,98,132.53a6.76,6.76,0,0,1-2.09-5A5.66,5.66,0,0,1,98.18,123a7.94,7.94,0,0,1,5.15-1.88q3.7,0,5.55,1.9a6.3,6.3,0,0,1,1.84,4.54c0,.37-.1.61-.28.7a3,3,0,0,1-1,.13h-8.12c-.66,0-1-.25-1-.74s.34-.7,1-.7Z" style="fill:#101a63;fill-rule:evenodd"/><path d="M118.69,123.91a1.32,1.32,0,0,0,.38.84,12.16,12.16,0,0,0,2.43,1.5,7.75,7.75,0,0,1,2.77,2.12,3.76,3.76,0,0,1,.71,2.19,3.34,3.34,0,0,1-1.49,2.85,6.46,6.46,0,0,1-3.87,1.07,6.34,6.34,0,0,1-2.62-.58c-.87-.38-1.3-.77-1.3-1.16a11.58,11.58,0,0,0-.07-1.19,11.18,11.18,0,0,1-.08-1.12c0-.59.27-.88.81-.88a.6.6,0,0,1,.43.2,4.59,4.59,0,0,1,.62,1.3,3.08,3.08,0,0,0,1,1.51,2.35,2.35,0,0,0,1.37.41,2.2,2.2,0,0,0,1.58-.61,2.14,2.14,0,0,0,.65-1.6,1.91,1.91,0,0,0-.44-1.19,8.06,8.06,0,0,0-2.41-1.5,6.19,6.19,0,0,1-2.56-1.83,3.42,3.42,0,0,1-.6-1.94,2.79,2.79,0,0,1,1.29-2.32,5,5,0,0,1,3-.94,8,8,0,0,1,2.77.5c.9.33,1.35.67,1.35,1a5.65,5.65,0,0,0,.07.83,7.43,7.43,0,0,1,.07.8,1.13,1.13,0,0,1-.19.65.55.55,0,0,1-.48.29.72.72,0,0,1-.58-.21,2.06,2.06,0,0,1-.31-.72,1.68,1.68,0,0,0-.46-.82,3.06,3.06,0,0,0-.84-.55,2.65,2.65,0,0,0-1.18-.25,2.11,2.11,0,0,0-1.24.41,1.14,1.14,0,0,0-.59.89Z" style="fill:#101a63;fill-rule:evenodd"/><path d="M133.33,123.91a1.32,1.32,0,0,0,.38.84,11.53,11.53,0,0,0,2.43,1.5,7.75,7.75,0,0,1,2.77,2.12,3.83,3.83,0,0,1,.71,2.19,3.33,3.33,0,0,1-1.5,2.85,6.44,6.44,0,0,1-3.87,1.07,6.26,6.26,0,0,1-2.61-.58c-.87-.38-1.3-.77-1.3-1.16s0-.71-.07-1.19a8.81,8.81,0,0,1-.08-1.12c0-.59.27-.88.81-.88a.6.6,0,0,1,.43.2,4.91,4.91,0,0,1,.62,1.3,3.08,3.08,0,0,0,1,1.51,2.32,2.32,0,0,0,1.36.41,2.23,2.23,0,0,0,1.59-.61,2.14,2.14,0,0,0,.65-1.6,1.91,1.91,0,0,0-.44-1.19,8,8,0,0,0-2.42-1.5,6.33,6.33,0,0,1-2.56-1.83,3.48,3.48,0,0,1-.59-1.94A2.79,2.79,0,0,1,132,122a4.94,4.94,0,0,1,3-.94,8,8,0,0,1,2.77.5c.89.33,1.34.67,1.34,1a5.86,5.86,0,0,0,.08.83,7,7,0,0,1,.06.8,1.2,1.2,0,0,1-.18.65.58.58,0,0,1-.48.29A.71.71,0,0,1,138,125a2.06,2.06,0,0,1-.31-.72,1.77,1.77,0,0,0-.46-.82,3.06,3.06,0,0,0-.84-.55,2.71,2.71,0,0,0-1.18-.25,2.09,2.09,0,0,0-1.24.41,1.14,1.14,0,0,0-.59.89Z" style="fill:#101a63;fill-rule:evenodd"/><path d="M161.68,132.92a4,4,0,0,0,3.25-1.47,5.65,5.65,0,0,0,1.22-3.72,5.18,5.18,0,0,0-1.31-3.64,4.29,4.29,0,0,0-3.3-1.41,3.87,3.87,0,0,0-3.19,1.39,5.48,5.48,0,0,0-1.14,3.59,5.59,5.59,0,0,0,1.26,3.84,4.09,4.09,0,0,0,3.21,1.42Zm0-11.8a7.29,7.29,0,0,1,5.13,2,6.32,6.32,0,0,1,.1,9.48,8.11,8.11,0,0,1-5.6,1.86,7.39,7.39,0,0,1-5-1.9,6,6,0,0,1-2.21-4.71,6.66,6.66,0,0,1,1.94-4.73,7.43,7.43,0,0,1,5.61-2Z" style="fill:#101a63;fill-rule:evenodd"/><path d="M176.26,116.72a10.81,10.81,0,0,1,.41-3.25,6.48,6.48,0,0,1,1.38-2.36,10.11,10.11,0,0,1,2.23-1.88,4.74,4.74,0,0,1,1.64-.79c.16,0,.25.24.25.7,0,.07-.12.19-.34.37a6,6,0,0,0-2.16,2.9,11.68,11.68,0,0,0-.59,3.79V122c0,.14.1.21.29.21l.6,0a7.34,7.34,0,0,1,.92-.06c.68,0,1,.24,1,.7a.61.61,0,0,1-.34.54,1.49,1.49,0,0,1-.8.2c-1.13,0-1.7.46-1.7,1.37V131a2.21,2.21,0,0,0,.16,1.08,3.34,3.34,0,0,0,.42.44,2.07,2.07,0,0,0,1.1.35,2.21,2.21,0,0,1,1,.28.62.62,0,0,1,.2.47c0,.47-.35.7-1,.7a8.09,8.09,0,0,1-1.52-.18,9.44,9.44,0,0,0-1.82-.18,10.1,10.1,0,0,0-1.61.18,10.7,10.7,0,0,1-1.3.18c-.75,0-1.12-.26-1.12-.77a.57.57,0,0,1,.16-.42,1.92,1.92,0,0,1,.92-.25,2.64,2.64,0,0,0,1.11-.34.89.89,0,0,0,.42-.6,11.83,11.83,0,0,0,.06-1.52v-5.66c0-.85-.52-1.27-1.57-1.27-.82,0-1.23-.25-1.23-.77s.41-.7,1.24-.7a7.62,7.62,0,0,1,.85,0l.5.06a.19.19,0,0,0,.21-.21Z" style="fill:#101a63;fill-rule:evenodd"/><path d="M210.55,132.46a2,2,0,0,0,1.14-.31,2,2,0,0,0,.7-1.36,2.5,2.5,0,0,1,.46-1.28,1,1,0,0,1,.65-.22.79.79,0,0,1,.54.28,1,1,0,0,1,.29.76,22.66,22.66,0,0,0,.21,3.08c0,.64-.31.93-.92.88a16.27,16.27,0,0,0-1.86-.08H198c-1.09,0-1.63-.28-1.63-.84,0-.37.1-.6.29-.71a2,2,0,0,1,.9-.16c.77-.05,1.24-.26,1.43-.62a2.6,2.6,0,0,0,.29-1.23V112.06a2.24,2.24,0,0,0-.32-1.18,2.48,2.48,0,0,0-1.39-.86,2.85,2.85,0,0,1-1.3-.63,1,1,0,0,1-.22-.65.54.54,0,0,1,.27-.41,1,1,0,0,1,.63-.2,5.56,5.56,0,0,1,1.2.32,6.32,6.32,0,0,0,2.09.33,9.91,9.91,0,0,0,2.71-.36,8.54,8.54,0,0,1,1.65-.37,1,1,0,0,1,.71.29.87.87,0,0,1,.31.65.71.71,0,0,1-.18.49,2,2,0,0,1-1,.36,3.17,3.17,0,0,0-1.4.54,2.47,2.47,0,0,0-.69,2V130.1a3,3,0,0,0,.42,1.85,1.46,1.46,0,0,0,1.21.51Z" style="fill:#101a63;fill-rule:evenodd"/><path d="M223.2,115.76a1.92,1.92,0,0,1,1.4.6,1.9,1.9,0,0,1,.59,1.39,1.55,1.55,0,0,1-.59,1.23,2,2,0,0,1-1.37.51,1.92,1.92,0,0,1-1.37-.56,1.8,1.8,0,0,1-.57-1.33,1.73,1.73,0,0,1,.57-1.29,1.92,1.92,0,0,1,1.34-.55Zm1.44,15.39a1.46,1.46,0,0,0,.32,1.13,1.7,1.7,0,0,0,.85.35,1.92,1.92,0,0,1,.75.22.66.66,0,0,1,.23.59c0,.4-.35.6-1,.6a12.8,12.8,0,0,1-1.33-.11,12,12,0,0,0-1.32-.1,8.22,8.22,0,0,0-1.24.13,7.39,7.39,0,0,1-1.22.15,1.09,1.09,0,0,1-.71-.24.74.74,0,0,1-.29-.61.55.55,0,0,1,.16-.4,1.65,1.65,0,0,1,.82-.28,1.47,1.47,0,0,0,.91-.42,2.9,2.9,0,0,0,.25-1.54v-6a1.22,1.22,0,0,0-.32-1,2.12,2.12,0,0,0-.93-.37,1.29,1.29,0,0,1-.77-.32.8.8,0,0,1-.16-.49.64.64,0,0,1,.26-.52,1,1,0,0,1,.62-.21,4,4,0,0,1,.86.13,3.84,3.84,0,0,0,.83.13,7,7,0,0,0,.92-.09,6.13,6.13,0,0,1,.93-.1c.44,0,.66.37.66,1.1,0,.11,0,.27,0,.47a3.54,3.54,0,0,0,0,.4Z" style="fill:#101a63;fill-rule:evenodd"/><path d="M234.63,116.72a10.81,10.81,0,0,1,.41-3.25,6.48,6.48,0,0,1,1.38-2.36,10.35,10.35,0,0,1,2.23-1.88,4.74,4.74,0,0,1,1.64-.79c.16,0,.24.24.24.7,0,.07-.11.19-.33.37a6,6,0,0,0-2.16,2.9,11.42,11.42,0,0,0-.59,3.79V122c0,.14.1.21.28.21l.61,0a7.34,7.34,0,0,1,.92-.06c.68,0,1,.24,1,.7a.61.61,0,0,1-.34.54,1.46,1.46,0,0,1-.8.2c-1.13,0-1.7.46-1.7,1.37V131a2.09,2.09,0,0,0,.16,1.08,2.79,2.79,0,0,0,.42.44,2.07,2.07,0,0,0,1.09.35,2.22,2.22,0,0,1,1,.28.62.62,0,0,1,.2.47c0,.47-.35.7-1,.7a8.19,8.19,0,0,1-1.52-.18A9.44,9.44,0,0,0,236,134a10.1,10.1,0,0,0-1.61.18,10.76,10.76,0,0,1-1.31.18c-.74,0-1.11-.26-1.11-.77a.57.57,0,0,1,.16-.42,1.92,1.92,0,0,1,.92-.25,2.69,2.69,0,0,0,1.11-.34.89.89,0,0,0,.42-.6,11.83,11.83,0,0,0,.06-1.52v-5.66c0-.85-.53-1.27-1.58-1.27-.81,0-1.22-.25-1.22-.77s.42-.7,1.24-.7a7.62,7.62,0,0,1,.85,0l.5.06a.19.19,0,0,0,.21-.21Z" style="fill:#101a63;fill-rule:evenodd"/><path d="M256.57,127a.81.81,0,0,0,.55-.14.72.72,0,0,0,.14-.51,3.75,3.75,0,0,0-1.05-2.53,4.09,4.09,0,0,0-3.19-1.18,4.67,4.67,0,0,0-3,1.4,5,5,0,0,0-1.57,4,4.47,4.47,0,0,0,1.65,3.38,5.43,5.43,0,0,0,3.71,1.49,7.22,7.22,0,0,0,3.36-1,2.54,2.54,0,0,1,.9-.38.72.72,0,0,1,.51.18.61.61,0,0,1,.18.45c0,.43-.65,1-2,1.57a9.41,9.41,0,0,1-4,.92,7,7,0,0,1-5.15-2.09,6.77,6.77,0,0,1-2.1-5,5.67,5.67,0,0,1,2.3-4.52,7.92,7.92,0,0,1,5.15-1.88q3.7,0,5.54,1.9a6.27,6.27,0,0,1,1.85,4.54c0,.37-.1.61-.28.7a3.06,3.06,0,0,1-1.05.13h-8.12c-.66,0-1-.25-1-.74s.34-.7,1-.7Z" style="fill:#101a63;fill-rule:evenodd"/></g></g></svg>
